<?xml version="1.0" encoding="UTF-8" standalone="no"?>
<!-- Created with Inkscape (http://www.inkscape.org/) -->

<svg
   version="1.1"
   id="svg1"
   width="290.74411"
   height="290.78021"
   viewBox="0 0 290.74411 290.78021"
   xmlns="http://www.w3.org/2000/svg"
   xmlns:svg="http://www.w3.org/2000/svg">
  <defs
     id="defs1" />
  <g
     id="g1"
     transform="translate(-0.04807362,-0.04807362)">
    <path
       style="fill:#000000"
       d="M 132.07101,290.19925 C 105.15298,287.63272 79.553965,277.66749 57.422771,261.14007 50.41306,255.90527 34.934973,240.42718 29.70017,233.41747 -9.8359585,180.47625 -9.8359585,110.36399 29.70017,57.422771 34.934973,50.41306 50.41306,34.934973 57.422771,29.70017 c 52.941219,-39.5361285 123.053479,-39.5361285 175.994699,0 7.00971,5.234803 22.4878,20.71289 27.7226,27.722601 39.53613,52.941219 39.53613,123.053479 0,175.994699 -5.2348,7.00971 -20.71289,22.4878 -27.7226,27.7226 -29.52613,22.04991 -65.79385,32.44899 -101.34646,29.05918 z m 33.51479,-24.32269 c 25.94116,-4.534 47.22469,-15.61687 65.94929,-34.34147 19.07134,-19.07134 30.21667,-40.82016 34.66947,-67.65343 0.77793,-4.68793 1.0369,-9.29878 1.0369,-18.46154 0,-9.16276 -0.25897,-13.77361 -1.0369,-18.46154 -4.4528,-26.83327 -15.59813,-48.582086 -34.66947,-67.653429 -19.07134,-19.071342 -40.82016,-30.216675 -67.65343,-34.669469 -8.76764,-1.454928 -28.15544,-1.454928 -36.92308,0 -26.83327,4.452794 -48.582086,15.598127 -67.653429,34.669469 -19.071342,19.071343 -30.216675,40.820159 -34.669469,67.653429 -1.454928,8.76764 -1.454928,28.15544 0,36.92308 4.452794,26.83327 15.598127,48.58209 34.669469,67.65343 20.929587,20.92959 45.519779,32.52979 75.606089,35.6665 5.89724,0.61483 24.06611,-0.17 30.67456,-1.32503 z m -49.42012,-52.10359 c -5.26965,-1.21155 -8.77926,-3.92975 -10.87649,-8.42385 l -1.32543,-2.84024 V 144.28403 86.059173 l 1.33299,-2.840237 c 2.68161,-5.713801 6.97555,-8.486969 13.14112,-8.486969 5.83091,0 10.2453,2.755044 13.14351,8.202945 1.0088,1.896286 1.06472,4.68324 1.21005,60.306018 0.15075,57.69191 0.13981,58.35143 -1.01837,61.44697 -1.26242,3.37411 -4.45569,6.75945 -7.57544,8.03109 -2.10391,0.85758 -6.42176,1.42418 -8.03194,1.05398 z m 57.18777,-0.21504 c -3.60072,-0.72626 -7.46566,-3.73954 -9.47179,-7.38463 l -1.70414,-3.09637 v -58.7929 c 0,-65.519345 -0.30433,-60.512474 3.96528,-65.238421 2.22177,-2.459229 6.91453,-4.631407 10.00567,-4.631407 5.49492,0 10.90599,3.302219 13.24504,8.083062 l 1.49102,3.047542 -0.15232,59.334104 c -0.1409,54.88194 -0.22567,59.46811 -1.12982,61.11998 -3.12613,5.71138 -9.86553,8.84656 -16.24894,7.55904 z"
       id="path1" />
  </g>
</svg>
