<?xml version="1.0" encoding="UTF-8" standalone="no"?>
<!-- Created with Inkscape (http://www.inkscape.org/) -->

<svg
   version="1.1"
   id="svg1"
   width="224.52567"
   height="224.37508"
   viewBox="0 0 224.52567 224.37508"
   xmlns="http://www.w3.org/2000/svg"
   xmlns:svg="http://www.w3.org/2000/svg">
  <defs
     id="defs1" />
  <g
     id="g1"
     transform="translate(-0.2445474,-0.33262506)">
    <path
       style="fill:#000000"
       d="M 98.014733,223.87402 C 80.874105,221.88979 60.45096,213.67933 46.152004,203.02429 2.1809527,170.25873 -12.154487,112.11289 11.683759,63.217972 38.766471,7.6682909 106.14703,-15.441254 161.848,11.716063 c 41.99699,20.475869 67.2997,66.048374 62.29435,112.197877 -2.77079,25.54677 -12.71198,47.15782 -30.12906,65.49721 -25.20362,26.53827 -59.15784,38.72762 -95.998557,34.46287 z m 40.281857,-21.25748 c 31.29053,-9.37225 54.72111,-32.72138 64.34022,-64.11654 2.54892,-8.31923 2.7575,-10.2859 2.7575,-26 0,-15.645241 -0.21567,-17.701015 -2.70628,-25.796586 C 192.97776,55.140756 169.86481,31.972997 138.5,22.363187 c -8.31923,-2.548914 -10.2859,-2.757494 -26,-2.757494 -15.714101,0 -17.68077,0.20858 -26,2.757494 -31.404518,9.621977 -54.823818,33.130924 -64.094878,64.340227 -3.213248,10.816803 -4.323834,29.302506 -2.456045,40.880856 5.426636,33.63951 30.626265,63.32199 62.663901,73.81141 11.549643,3.78145 17.621472,4.57072 32.387022,4.20994 12.09166,-0.29545 15.96105,-0.79191 23.29659,-2.98908 z M 95.654988,150.17126 C 94.180112,148.54154 94,144.46042 94,112.67126 94,78.333333 94.074757,76.925243 96,75 c 2.285172,-2.285172 3.638629,-2.432157 6.57979,-0.714565 7.40011,4.321559 48.4636,35.275915 48.98793,36.927935 0.40296,1.26961 -0.05,2.90814 -1.21219,4.38526 C 147.38227,119.3775 101.72804,152 99.412881,152 c -1.156598,0 -2.84765,-0.82293 -3.757893,-1.82874 z"
       id="path1" />
  </g>
</svg>
